<svg width="400" height="400" viewBox="0 0 400 400" fill="none" xmlns="http://www.w3.org/2000/svg">
<path d="M0 200C0 89.5431 89.5431 0 200 0V0C310.457 0 400 89.5431 400 200V200C400 310.457 310.457 400 200 400V400C89.5431 400 0 310.457 0 200V200Z" fill="#1F1E1E"/>
<path d="M253.884 45C254.536 45 255.187 45 255.876 45C257.474 64.7462 249.937 79.5005 240.777 90.1851C231.789 100.796 219.482 111.087 199.576 109.526C198.248 90.0621 205.797 76.4021 214.945 65.7421C223.429 55.8075 238.982 46.9672 253.884 45Z" fill="#D9D9D9"/>
<path d="M314.143 250.528C314.143 250.724 314.143 250.896 314.143 251.081C308.549 268.024 300.569 282.544 290.831 296.02C281.942 308.254 271.048 324.717 251.597 324.717C234.789 324.717 223.625 313.91 206.4 313.615C188.178 313.32 178.157 322.652 161.497 325C159.592 325 157.686 325 155.817 325C143.583 323.23 133.71 313.541 126.517 304.811C105.308 279.016 88.9184 245.696 85.8691 203.056C85.8691 198.875 85.8691 194.707 85.8691 190.527C87.1601 160.01 101.988 135.198 121.698 123.173C132.099 116.78 146.399 111.333 162.321 113.767C169.145 114.825 176.116 117.161 182.227 119.472C188.018 121.698 195.26 125.645 202.121 125.436C206.768 125.3 211.391 122.878 216.076 121.169C229.797 116.214 243.249 110.534 260.978 113.202C282.286 116.423 297.409 125.891 306.754 140.497C288.729 151.969 274.478 169.256 276.913 198.777C279.077 225.593 294.667 241.282 314.143 250.528Z" fill="#D9D9D9"/>
</svg>
