<svg width="400" height="400" viewBox="0 0 400 400" fill="none" xmlns="http://www.w3.org/2000/svg">
<rect width="400" height="400" rx="25" fill="#1F1E1E"/>
<path d="M269.279 20C270.117 20 270.955 20 271.84 20C273.895 45.388 264.205 64.3578 252.428 78.0951C240.872 91.7376 225.048 104.969 199.455 102.961C197.747 77.937 207.454 60.3741 219.215 46.6684C230.123 33.8954 250.12 22.5293 269.279 20Z" fill="#D9D9D9"/>
<path d="M346.755 284.25C346.755 284.503 346.755 284.724 346.755 284.961C339.563 306.745 329.303 325.414 316.783 342.74C305.354 358.469 291.348 379.636 266.339 379.636C244.729 379.636 230.375 365.741 208.228 365.362C184.8 364.982 171.917 376.981 150.497 380C148.046 380 145.596 380 143.193 380C127.464 377.724 114.77 365.267 105.522 354.043C78.2532 320.877 57.1809 278.037 53.2605 223.214C53.2605 217.84 53.2605 212.481 53.2605 207.106C54.9204 167.87 73.985 135.969 99.3256 120.509C112.699 112.288 131.084 105.285 151.556 108.415C160.329 109.775 169.293 112.778 177.149 115.75C184.595 118.612 193.906 123.686 202.727 123.417C208.702 123.243 214.646 120.129 220.669 117.932C238.311 111.561 255.605 104.258 278.401 107.688C305.796 111.83 325.24 124.002 337.255 142.782C314.08 157.531 295.758 179.758 298.888 217.713C301.67 252.191 321.715 272.362 346.755 284.25Z" fill="#D9D9D9"/>
</svg>
