<svg width="1728" height="586" viewBox="0 0 1728 586" fill="none" xmlns="http://www.w3.org/2000/svg">
<path d="M384.02 451L506.315 111.55H583.505L709.52 451H662.555L548.63 141.31L570.95 152.47H516.08L539.795 141.31L429.59 451H384.02ZM457.025 349.63L472.37 308.71H618.845L634.19 349.63H457.025ZM699.744 451V184.555C699.744 156.965 707.029 136.66 721.599 123.64C736.169 110.62 757.559 104.11 785.769 104.11H810.879V141.31H778.329C766.859 141.31 758.024 144.565 751.824 151.075C745.624 157.275 742.524 165.955 742.524 177.115V451H699.744ZM859.239 451V187.345C859.239 159.755 866.524 139.45 881.094 126.43C895.664 113.41 917.054 106.9 945.264 106.9H973.164V144.1H937.824C926.354 144.1 917.519 147.355 911.319 153.865C905.119 160.065 902.019 168.745 902.019 179.905V451H859.239ZM1029.89 451V202.69H1074.53V451H1029.89ZM665.334 236.17V202.69H968.514V236.17H665.334ZM993.624 238.03V202.69H1074.53V238.03H993.624ZM1042.45 162.7C1032.53 162.7 1025.09 160.065 1020.13 154.795C1015.48 149.525 1013.15 142.86 1013.15 134.8C1013.15 126.74 1015.48 120.075 1020.13 114.805C1025.09 109.535 1032.53 106.9 1042.45 106.9C1052.37 106.9 1059.65 109.535 1064.3 114.805C1069.26 120.075 1071.74 126.74 1071.74 134.8C1071.74 142.86 1069.26 149.525 1064.3 154.795C1059.65 160.065 1052.37 162.7 1042.45 162.7ZM1091.21 451V202.69H1126.55V309.175H1120.97C1120.97 284.685 1124.22 264.07 1130.73 247.33C1137.55 230.28 1147.78 217.415 1161.42 208.735C1175.06 199.745 1192.27 195.25 1213.04 195.25H1214.9C1246.21 195.25 1269.3 205.015 1284.18 224.545C1299.37 244.075 1306.97 272.285 1306.97 309.175V451H1262.33V299.875C1262.33 280.655 1256.9 265.31 1246.05 253.84C1235.2 242.06 1220.32 236.17 1201.41 236.17C1181.88 236.17 1166.07 242.215 1153.98 254.305C1141.89 266.395 1135.85 282.515 1135.85 302.665V451H1091.21ZM1330.99 451V202.69H1375.63V451H1330.99ZM1292.86 238.03V202.69H1375.63V238.03H1292.86ZM1343.54 162.7C1333.62 162.7 1326.18 160.065 1321.22 154.795C1316.57 149.525 1314.25 142.86 1314.25 134.8C1314.25 126.74 1316.57 120.075 1321.22 114.805C1326.18 109.535 1333.62 106.9 1343.54 106.9C1353.46 106.9 1360.75 109.535 1365.4 114.805C1370.36 120.075 1372.84 126.74 1372.84 134.8C1372.84 142.86 1370.36 149.525 1365.4 154.795C1360.75 160.065 1353.46 162.7 1343.54 162.7ZM1488.91 453.79C1470.31 453.79 1454.19 451.155 1440.55 445.885C1427.22 440.615 1416.83 431.625 1409.39 418.915C1402.26 405.895 1398.7 388.38 1398.7 366.37V127.36H1441.48V371.95C1441.48 385.28 1445.04 395.665 1452.17 403.105C1459.61 410.235 1470 413.8 1483.33 413.8H1527.04V453.79H1488.91ZM1355.92 236.17V202.69H1527.04V236.17H1355.92ZM1503.69 547.72V507.73H1539.49C1550.03 507.73 1558.87 506.335 1566 503.545C1573.44 501.065 1579.48 496.725 1584.13 490.525C1589.09 484.325 1593.12 476.11 1596.22 465.88L1674.34 202.69H1718.05L1635.28 477.505C1630.32 493.935 1623.35 507.265 1614.36 517.495C1605.37 528.035 1594.36 535.63 1581.34 540.28C1568.63 545.24 1553.75 547.72 1536.7 547.72H1503.69ZM1579.48 445.42V408.22H1633.42V445.42H1579.48ZM1574.83 445.42L1486.02 202.69H1531.59L1616.68 445.42H1574.83Z" fill="#A49CA7"/>
<path d="M152.144 111H215.147L220.417 120.178H238.477L392 372.543L364 451H224.206H209.654H189.271H172.573H46.923L38.1595 435.605H27.3236L-4 381.366H-3.94079L36.2055 311.731L73.3912 290.296L134.913 183.773L122.538 162.338L152.144 111ZM189.271 205.208L80.4375 393.208H184.593L172.573 372.425L286.084 372.543L189.271 205.208Z" fill="#A49CA7"/>
</svg>
