<svg width="512" height="512" viewBox="0 0 512 512" fill="none" xmlns="http://www.w3.org/2000/svg">
<path fill-rule="evenodd" clip-rule="evenodd" d="M512 50C512 22.404 489.596 0 462 0H50C22.404 0 0 22.404 0 50V462C0 489.596 22.404 512 50 512H462C489.596 512 512 489.596 512 462V50Z" fill="#4E3188"/>
<path fill-rule="evenodd" clip-rule="evenodd" d="M474.5 325.043V454.5C474.5 465.404 465.755 474.283 454.9 474.496L322.69 474.495L236.37 325.043H474.5ZM303.02 474.495H69.1299L186.14 272.138L303.02 474.495ZM50.3499 473.181C43.2749 470.468 38.1299 463.855 37.5549 455.982L37.4999 366.751L132.585 202.125H206.905L50.3499 473.181ZM274.875 201.818C281.35 201.845 287.545 205.648 290.89 211.285C290.925 211.342 290.99 211.457 290.99 211.457L310.64 245.483L310.81 245.765C314.02 251.382 314.145 258.46 310.935 264.179C304.35 275.7 297.66 287.165 291.02 298.659C287.76 304.248 281.59 307.895 275.03 307.977C262.515 308.029 237.42 308 237.385 308C230.91 307.973 224.615 304.521 221.265 298.884C221.19 298.762 221.05 298.512 221.05 298.512C221.05 298.512 201.39 264.483 201.35 264.404C198.135 258.787 198.14 251.53 201.35 245.811C201.395 245.727 201.495 245.559 201.495 245.559C201.495 245.559 214.65 222.74 221.235 211.331C224.495 205.741 230.68 201.896 237.235 201.814C237.345 201.813 237.565 201.808 237.565 201.808L274.65 201.818H274.875ZM460.945 38.563L305.32 308H474.5V57.5C474.5 48.717 468.825 41.2485 460.945 38.563ZM227.67 37.5H441.885L326.035 238.078L218.93 52.638L227.67 37.5ZM275.76 185.095H142.42L209.09 69.668L275.76 185.095Z" fill="url(#paint0_radial_5_28)"/>
<defs>
<radialGradient id="paint0_radial_5_28" cx="0" cy="0" r="1" gradientUnits="userSpaceOnUse" gradientTransform="translate(371.515 -44.6295) scale(519.125 519.125)">
<stop stop-color="#F9A6FF"/>
<stop offset="1" stop-color="#EA73FF"/>
</radialGradient>
</defs>
</svg>
