<svg width="513" height="511" viewBox="0 0 513 511" fill="none" xmlns="http://www.w3.org/2000/svg">
<path fill-rule="evenodd" clip-rule="evenodd" d="M512.175 49.9023C512.175 22.3602 489.763 0 462.158 0H50.0171C22.4116 0 0 22.3602 0 49.9023V461.098C0 488.64 22.4116 511 50.0171 511H462.158C489.763 511 512.175 488.64 512.175 461.098V49.9023Z" fill="#891B26"/>
<path fill-rule="evenodd" clip-rule="evenodd" d="M233.155 473.573L104.211 250.835L37.5183 366.038V453.612C37.5183 464.629 46.4814 473.573 57.5251 473.573H233.155ZM327.182 473.573H252.837C252.837 473.573 156.529 307.155 124.263 251.479C121.155 246.115 119.518 240.029 119.517 233.834C119.516 227.638 121.151 221.551 124.258 216.186C135.927 196.042 151.227 169.623 151.227 169.623L327.182 473.573ZM421.209 473.573H346.864L162.156 150.741L198.238 88.418L421.209 473.573ZM474.667 403.499V453.612C474.667 464.629 465.704 473.573 454.661 473.573H440.891L208.076 71.4207L227.758 37.4268H262.745L474.667 403.499ZM454.661 37.4268H282.422L474.667 369.505V57.3877C474.667 46.3708 465.704 37.4268 454.661 37.4268Z" fill="url(#paint0_radial_6_3)"/>
<defs>
<radialGradient id="paint0_radial_6_3" cx="0" cy="0" r="1" gradientUnits="userSpaceOnUse" gradientTransform="translate(371.607 -44.5429) scale(519.307 518.116)">
<stop stop-color="#FBA767"/>
<stop offset="1" stop-color="#FF9350"/>
</radialGradient>
</defs>
</svg>
